<svg xmlns="http://www.w3.org/2000/svg" viewBox="0 0 32 32" role="img" aria-label="WhatsApp">
  <path fill="#fff" d="M16.02 3C8.84 3 3 8.72 3 15.75c0 2.51.75 4.96 2.16 7.03L3.75 29l6.42-1.68a13.2 13.2 0 0 0 5.84 1.38h.01C23.2 28.7 29 22.98 29 15.95 29 8.82 23.2 3 16.02 3Zm0 23.54c-1.92 0-3.8-.51-5.43-1.47l-.39-.23-3.81 1 1.02-3.71-.25-.38a10.53 10.53 0 0 1-1.63-5.99c0-5.87 4.71-10.64 10.5-10.64 5.79 0 10.5 4.77 10.5 10.64 0 5.88-4.71 10.78-10.51 10.78Zm5.76-7.98c-.31-.16-1.86-.92-2.15-1.02-.29-.11-.5-.16-.71.16-.21.31-.81 1.02-.99 1.23-.18.21-.37.24-.68.08-.31-.16-1.32-.49-2.51-1.56-.93-.83-1.55-1.85-1.73-2.16-.18-.31-.02-.48.14-.64.14-.14.31-.37.47-.55.16-.18.21-.31.31-.52.1-.21.05-.39-.03-.55-.08-.16-.71-1.7-.97-2.33-.26-.62-.52-.54-.71-.55h-.61c-.21 0-.55.08-.84.39-.29.31-1.1 1.08-1.1 2.64s1.13 3.06 1.29 3.27c.16.21 2.22 3.4 5.39 4.77.75.33 1.34.52 1.8.66.76.24 1.44.21 1.98.13.6-.09 1.86-.76 2.12-1.49.26-.73.26-1.36.18-1.49-.08-.13-.29-.21-.6-.37Z"/>
</svg>