<?xml version="1.0" encoding="UTF-8"?>
<svg xmlns="http://www.w3.org/2000/svg" viewBox="0 0 900 300">
<rect width="100%" height="100%" fill="none"/>
<path d="M170 110 L330 20 L490 110" fill="none" stroke="#FFFFFF" stroke-width="22" stroke-linecap="round" stroke-linejoin="round"/>
<rect x="455" y="18" width="22" height="88" fill="#FFFFFF"/>
<rect x="300" y="68" width="46" height="46" fill="#163F7A"/>
<line x1="323" y1="68" x2="323" y2="114" stroke="#FFFFFF" stroke-width="4"/>
<line x1="300" y1="91" x2="346" y2="91" stroke="#FFFFFF" stroke-width="4"/>
<polygon points="620,40 630,65 655,75 630,85 620,110 610,85 585,75 610,65" fill="#6CD11F"/>
<polygon points="690,60 697,76 713,83 697,90 690,106 683,90 667,83 683,76" fill="#6CD11F"/>
<text x="40" y="190" font-family="Arial" font-size="96" font-weight="700" fill="#FFFFFF">DOMZOR</text>
<text x="40" y="245" font-family="Arial" font-size="34" font-weight="700" fill="#6CD11F">CLEANING &amp; RESTORATION</text>
</svg>