<?xml version="1.0" encoding="UTF-8"?>
<svg xmlns="http://www.w3.org/2000/svg" viewBox="0 0 1000 330" role="img" aria-labelledby="title desc">
  <title id="title">DOMZOR Cleaning &amp; Restoration</title>
  <desc id="desc">White and green transparent vector logo for dark backgrounds.</desc>
  <g fill="none" stroke="#FFFFFF" stroke-width="22" stroke-linecap="round" stroke-linejoin="round">
    <path d="M175 112 L360 24 L545 112"/>
    <path d="M477 58 V112"/>
  </g>
  <rect x="474" y="42" width="26" height="76" rx="2" fill="#FFFFFF"/>
  <g fill="#FFFFFF">
    <rect x="332" y="74" width="18" height="18" rx="1"/>
    <rect x="356" y="74" width="18" height="18" rx="1"/>
    <rect x="332" y="98" width="18" height="18" rx="1"/>
    <rect x="356" y="98" width="18" height="18" rx="1"/>
  </g>
  <g fill="#63C617">
    <path d="M642 31 C648 58 664 74 691 80 C664 86 648 102 642 129 C636 102 620 86 593 80 C620 74 636 58 642 31Z"/>
    <path d="M708 61 C712 79 723 90 741 94 C723 98 712 109 708 127 C704 109 693 98 675 94 C693 90 704 79 708 61Z"/>
  </g>
  <text x="52" y="224" font-family="Arial, Helvetica, sans-serif" font-size="132" font-weight="800" letter-spacing="1" fill="#FFFFFF">DOMZOR</text>
  <text x="57" y="285" font-family="Arial, Helvetica, sans-serif" font-size="39" font-weight="700" letter-spacing="2.3" fill="#63C617">CLEANING &amp; RESTORATION</text>
</svg>
