<?xml version="1.0" encoding="UTF-8"?>
<svg xmlns="http://www.w3.org/2000/svg" width="1200" height="420" viewBox="0 0 1200 420">
<rect width="100%" height="100%" fill="white"/>
<path d="M170 190 L420 40 L670 190 L610 190 L420 75 L230 190 Z" fill="#0B2D6B"/>
<rect x="315" y="60" width="45" height="95" fill="#0B2D6B"/>
<rect x="392" y="112" width="18" height="18" fill="#0B2D6B"/>
<rect x="414" y="112" width="18" height="18" fill="#0B2D6B"/>
<rect x="392" y="134" width="18" height="18" fill="#0B2D6B"/>
<rect x="414" y="134" width="18" height="18" fill="#0B2D6B"/>
<polygon points="760,60 775,95 810,110 775,125 760,160 745,125 710,110 745,95" fill="#63C10F"/>
<polygon points="850,95 860,118 883,128 860,138 850,161 840,138 817,128 840,118" fill="#63C10F"/>
<text x="50" y="315" font-family="Arial" font-size="170" font-weight="700" fill="#0B2D6B">DOMZOR</text>
<text x="55" y="385" font-family="Arial" font-size="54" font-weight="700" fill="#63C10F">CLEANING &amp; RESTORATION</text>
</svg>